<?xml version="1.0" encoding="UTF-8"?><svg xmlns="http://www.w3.org/2000/svg" xmlns:xlink="http://www.w3.org/1999/xlink" fill-opacity="1" color-rendering="auto" color-interpolation="auto" text-rendering="auto" stroke="black" stroke-linecap="square" width="186" stroke-miterlimit="10" shape-rendering="auto" stroke-opacity="1" fill="black" stroke-dasharray="none" font-weight="normal" stroke-width="1" height="160" font-family="'Dialog'" font-style="normal" stroke-linejoin="miter" font-size="12px" stroke-dashoffset="0" image-rendering="auto">
  <!--Generated by ySVG 2.5-->
  <defs id="genericDefs"/>
  <g>
    <defs id="defs1">
      <clipPath clipPathUnits="userSpaceOnUse" id="clipPath1">
        <path d="M0 0 L186 0 L186 160 L0 160 L0 0 Z"/>
      </clipPath>
      <clipPath clipPathUnits="userSpaceOnUse" id="clipPath2">
        <path d="M401 273 L587 273 L587 433 L401 433 L401 273 Z"/>
      </clipPath>
    </defs>
    <g fill="white" text-rendering="geometricPrecision" shape-rendering="geometricPrecision" transform="translate(-401,-273)" stroke="white">
      <rect x="401" width="186" height="160" y="273" clip-path="url(#clipPath2)" stroke="none"/>
    </g>
    <g text-rendering="geometricPrecision" stroke-miterlimit="1.45" shape-rendering="geometricPrecision" transform="matrix(1,0,0,1,-401,-273)" stroke-linecap="butt">
      <circle fill="none" r="15" clip-path="url(#clipPath2)" cx="441" cy="303"/>
      <text x="437.0537" y="306.4688" clip-path="url(#clipPath2)" font-family="'Lucida Console'" stroke="none" font-weight="bold" xml:space="preserve">h</text>
      <circle fill="none" r="15" clip-path="url(#clipPath2)" cx="547.1008" cy="303"/>
      <text x="543.1545" y="306.4688" clip-path="url(#clipPath2)" font-family="'Lucida Console'" stroke="none" font-weight="bold" xml:space="preserve">m</text>
      <circle fill="none" r="15" clip-path="url(#clipPath2)" cx="441" cy="402.152"/>
      <text x="437.0537" y="405.6208" clip-path="url(#clipPath2)" font-family="'Lucida Console'" stroke="none" font-weight="bold" xml:space="preserve">s</text>
      <circle fill="none" r="15" clip-path="url(#clipPath2)" cx="547.1008" cy="402.152"/>
      <text x="543.1545" y="405.6208" clip-path="url(#clipPath2)" font-family="'Lucida Console'" stroke="none" font-weight="bold" xml:space="preserve">w</text>
      <path fill="none" d="M456 303 L524.1008 303" clip-path="url(#clipPath2)"/>
      <path d="M532.1008 303 L520.1008 298 L523.1008 303 L520.1008 308 Z" clip-path="url(#clipPath2)" stroke="none"/>
      <path fill="none" d="M441 387.152 L441 326" clip-path="url(#clipPath2)"/>
      <path d="M441 318 L436 330 L441 327 L446 330 Z" clip-path="url(#clipPath2)" stroke="none"/>
      <path fill="none" d="M426.7402 384.2638 L426.6743 384.1886 L422.409 377.364 L417.7613 364.97 L416.212 352.576 L417.7613 340.182 L422.409 327.788 L430.1552 315.394 L431.1224 314.2887" clip-path="url(#clipPath2)"/>
      <path d="M431.1632 390.9299 L428.695 378.1664 L426.1873 383.4306 L420.3624 383.6952 Z" clip-path="url(#clipPath2)" stroke="none"/>
      <path fill="none" d="M547.1008 318 L547.1008 379.152" clip-path="url(#clipPath2)"/>
      <path d="M547.1008 387.152 L552.1008 375.152 L547.1008 378.152 L542.1008 375.152 Z" clip-path="url(#clipPath2)" stroke="none"/>
      <path fill="none" d="M561.3607 320.8882 L561.4265 320.9635 L565.6918 327.788 L570.3396 340.182 L571.8889 352.576 L570.3396 364.97 L565.6918 377.364 L557.9456 389.758 L556.9925 390.8473" clip-path="url(#clipPath2)"/>
      <path d="M556.9377 314.2221 L559.4058 326.9856 L561.9135 321.7215 L567.7385 321.4569 Z" clip-path="url(#clipPath2)" stroke="none"/>
      <path fill="none" d="M532.1008 402.152 L464 402.152" clip-path="url(#clipPath2)"/>
      <path d="M456 402.152 L468 407.152 L465 402.152 L468 397.152 Z" clip-path="url(#clipPath2)" stroke="none"/>
    </g>
  </g>
</svg>
